<svg width="84" height="84" viewBox="0 0 84 84" fill="none" xmlns="http://www.w3.org/2000/svg">
<g clip-path="url(#clip0_14_222)">
<path d="M69.783 29H73.5C75.3565 29 77.137 29.7375 78.4497 31.0503C79.7625 32.363 80.5 34.1435 80.5 36V50C80.5 51.8565 79.7625 53.637 78.4497 54.9498C77.137 56.2625 75.3565 57 73.5 57H69.783C68.9297 63.7666 65.6364 69.9891 60.5211 74.5C55.4058 79.0109 48.8201 81.4999 42 81.5V74.5C47.5695 74.5 52.911 72.2875 56.8492 68.3493C60.7875 64.411 63 59.0696 63 53.5V32.5C63 26.9305 60.7875 21.589 56.8492 17.6508C52.911 13.7125 47.5695 11.5 42 11.5C36.4305 11.5 31.089 13.7125 27.1508 17.6508C23.2125 21.589 21 26.9305 21 32.5V57H10.5C8.64348 57 6.86301 56.2625 5.55025 54.9498C4.2375 53.637 3.5 51.8565 3.5 50V36C3.5 34.1435 4.2375 32.363 5.55025 31.0503C6.86301 29.7375 8.64348 29 10.5 29H14.217C15.0711 22.2341 18.3648 16.0125 23.48 11.5024C28.5952 6.99229 35.1804 4.50378 42 4.50378C48.8196 4.50378 55.4048 6.99229 60.52 11.5024C65.6352 16.0125 68.9289 22.2341 69.783 29ZM10.5 36V50H14V36H10.5ZM70 36V50H73.5V36H70ZM27.16 56.2475L30.87 50.3115C34.2058 52.4011 38.0638 53.5064 42 53.5C45.9362 53.5064 49.7942 52.4011 53.13 50.3115L56.84 56.2475C52.3924 59.034 47.2484 60.5081 42 60.5C36.7516 60.5081 31.6076 59.034 27.16 56.2475Z" fill="url(#paint0_linear_14_222)"/>
</g>
<defs>
<linearGradient id="paint0_linear_14_222" x1="3.5" y1="43.0019" x2="80.5" y2="43.0019" gradientUnits="userSpaceOnUse">
<stop stop-color="#2AF598"/>
<stop offset="1" stop-color="#009EFD"/>
</linearGradient>
<clipPath id="clip0_14_222">
<rect width="84" height="84" fill="white"/>
</clipPath>
</defs>
</svg>
